<svg xmlns="http://www.w3.org/2000/svg" xmlns:xlink="http://www.w3.org/1999/xlink" width="500" zoomAndPan="magnify" viewBox="0 0 375 374.999991" height="500" preserveAspectRatio="xMidYMid meet" version="1.0"><defs><g/><clipPath id="332dd251b7"><path d="M 36.804688 41.792969 L 328.21875 41.792969 L 328.21875 333.207031 L 36.804688 333.207031 Z M 36.804688 41.792969 " clip-rule="nonzero"/></clipPath><clipPath id="0934d447f0"><path d="M 182.511719 41.792969 C 102.042969 41.792969 36.804688 107.027344 36.804688 187.5 C 36.804688 267.972656 102.042969 333.207031 182.511719 333.207031 C 262.984375 333.207031 328.21875 267.972656 328.21875 187.5 C 328.21875 107.027344 262.984375 41.792969 182.511719 41.792969 " clip-rule="nonzero"/></clipPath><clipPath id="1ddd2541a3"><path d="M 181.960938 78.339844 L 208.210938 78.339844 L 208.210938 187.839844 L 181.960938 187.839844 Z M 181.960938 78.339844 " clip-rule="nonzero"/></clipPath><clipPath id="dfdc9972a5"><path d="M 36.804688 78.339844 L 329.304688 78.339844 L 329.304688 187.839844 L 36.804688 187.839844 Z M 36.804688 78.339844 " clip-rule="nonzero"/></clipPath></defs><g clip-path="url(#332dd251b7)"><g clip-path="url(#0934d447f0)"><path fill="#e8bf55" d="M 36.804688 41.792969 L 328.21875 41.792969 L 328.21875 333.207031 L 36.804688 333.207031 Z M 36.804688 41.792969 " fill-opacity="1" fill-rule="nonzero"/></g></g><g clip-path="url(#1ddd2541a3)"><path fill="#000000" d="M 191.3125 141.683594 C 191.234375 141.648438 191.234375 141.648438 191.195312 141.710938 C 191.171875 141.742188 191.136719 141.765625 191.117188 141.800781 C 191.085938 141.863281 191.050781 141.875 191.011719 141.816406 C 190.96875 141.761719 190.917969 141.773438 190.878906 141.800781 C 190.703125 141.917969 190.597656 141.914062 190.613281 141.957031 C 190.640625 142.019531 190.636719 142.035156 190.574219 142 C 190.527344 141.96875 190.492188 141.996094 190.449219 142.015625 C 190.1875 142.140625 189.910156 142.242188 189.667969 142.402344 C 189.511719 142.507812 189.332031 142.546875 189.175781 142.636719 C 189.152344 142.648438 189.136719 142.65625 189.113281 142.644531 C 189.097656 142.632812 189.0625 142.617188 189.054688 142.625 C 188.988281 142.683594 188.910156 142.660156 188.835938 142.679688 C 188.652344 142.726562 188.550781 142.828125 188.457031 142.824219 C 188.433594 142.824219 188.40625 142.832031 188.398438 142.851562 C 188.375 142.925781 188.3125 142.898438 188.265625 142.917969 C 188.113281 142.980469 187.945312 142.996094 187.800781 143.078125 C 187.617188 143.179688 187.417969 143.230469 187.230469 143.316406 C 187.144531 143.355469 187.058594 143.308594 186.996094 143.269531 C 186.945312 143.238281 186.925781 143.238281 186.875 143.261719 C 186.742188 143.335938 186.738281 143.328125 186.675781 143.449219 C 186.628906 143.535156 186.542969 143.574219 186.476562 143.636719 C 186.347656 143.761719 186.203125 143.867188 186.089844 144.007812 C 186.039062 144.070312 185.972656 144.125 185.894531 144.164062 C 185.816406 144.203125 185.75 144.265625 185.683594 144.324219 C 185.628906 144.378906 185.601562 144.4375 185.605469 144.519531 C 185.613281 144.664062 185.609375 144.664062 185.46875 144.71875 C 185.417969 144.738281 185.375 144.761719 185.355469 144.808594 C 185.300781 144.949219 185.175781 145.023438 185.078125 145.121094 C 184.984375 145.214844 184.84375 145.21875 184.738281 145.167969 C 184.636719 145.117188 184.53125 145.09375 184.433594 145.042969 C 184.355469 145 184.28125 144.953125 184.203125 144.910156 C 184.117188 144.859375 184.054688 144.796875 184.046875 144.6875 C 184.042969 144.582031 183.929688 144.523438 183.886719 144.613281 C 183.84375 144.707031 183.789062 144.699219 183.710938 144.675781 C 183.542969 144.628906 183.363281 144.613281 183.207031 144.515625 C 182.941406 144.359375 183.015625 144.269531 182.925781 144.160156 C 182.671875 143.859375 182.667969 143.65625 182.246094 142.976562 C 182.066406 142.6875 182.21875 142.570312 182.058594 142.34375 C 182 142.261719 181.960938 142.167969 181.972656 142.0625 C 181.992188 141.839844 182.183594 141.949219 182.269531 141.863281 C 182.472656 141.652344 182.808594 141.9375 183.25 141.917969 C 183.472656 141.90625 183.734375 142.019531 184.152344 141.867188 C 184.332031 141.800781 184.390625 141.832031 184.410156 141.820312 C 184.554688 141.734375 184.722656 141.738281 184.878906 141.691406 C 184.949219 141.671875 185.011719 141.632812 185.089844 141.640625 C 185.15625 141.648438 185.199219 141.601562 185.414062 141.425781 C 185.242188 141.425781 185.101562 141.4375 184.957031 141.359375 C 184.660156 141.1875 184.710938 141.378906 184.328125 140.925781 C 184.277344 140.867188 184.335938 140.828125 184.390625 140.863281 C 184.664062 141.0625 184.652344 141.089844 185.050781 141.242188 C 185.128906 141.273438 185.207031 141.296875 185.304688 141.265625 C 185.304688 141.191406 185.304688 141.121094 185.300781 141.050781 C 185.300781 140.964844 185.347656 140.921875 185.421875 140.917969 C 185.527344 140.914062 185.632812 140.917969 185.738281 140.925781 C 185.808594 140.929688 185.855469 140.980469 185.910156 141.023438 C 186.042969 141.140625 186.207031 141.152344 186.367188 141.066406 C 186.535156 140.976562 186.710938 140.910156 186.878906 140.816406 C 186.992188 140.753906 187.101562 140.675781 187.230469 140.625 C 187.390625 140.566406 187.535156 140.453125 187.699219 140.40625 C 187.910156 140.347656 188.113281 140.230469 188.347656 140.273438 C 188.441406 140.292969 188.539062 140.28125 188.625 140.238281 C 188.769531 140.164062 188.925781 140.113281 189.03125 139.972656 C 189.09375 139.890625 189.191406 139.839844 189.273438 139.777344 C 189.273438 139.746094 189.25 139.726562 189.230469 139.710938 C 189.023438 139.578125 189.222656 139.296875 189.152344 139 C 189.136719 138.933594 189.1875 138.886719 189.207031 138.832031 C 189.3125 138.546875 189.527344 138.53125 189.835938 138.414062 C 189.914062 138.386719 189.988281 138.378906 190.046875 138.449219 C 190.144531 138.566406 190.308594 138.4375 190.851562 138.890625 C 191.082031 138.636719 191.347656 138.246094 191.585938 138.105469 C 191.765625 137.996094 191.847656 137.78125 192.019531 137.667969 C 192.179688 137.566406 192.273438 137.390625 192.457031 137.316406 C 192.496094 137.300781 192.5 137.269531 192.492188 137.210938 C 192.4375 136.570312 192.515625 136.476562 192.511719 136.398438 C 192.488281 136.132812 192.5625 135.871094 192.546875 135.601562 C 192.542969 135.558594 192.519531 135.503906 192.585938 135.472656 C 192.621094 135.457031 192.613281 135.414062 192.609375 135.378906 C 192.585938 134.917969 192.660156 134.457031 192.644531 133.996094 C 192.640625 133.890625 192.648438 133.78125 192.644531 133.675781 C 192.617188 133.214844 192.84375 132.65625 192.882812 132.457031 C 192.898438 132.378906 192.953125 132.308594 193 132.242188 C 193.136719 132.054688 193.277344 131.863281 193.476562 131.746094 C 194.058594 131.410156 194.058594 131.660156 194.4375 131.472656 C 194.9375 131.226562 195.09375 131.347656 195.167969 131.316406 C 195.320312 131.25 195.488281 131.253906 195.652344 131.226562 C 195.953125 131.171875 196.488281 131 196.746094 130.984375 C 196.8125 130.984375 196.867188 130.964844 196.921875 130.945312 C 197.09375 130.886719 197.273438 130.929688 197.445312 130.886719 C 197.597656 130.851562 197.746094 130.796875 197.902344 130.765625 C 198.210938 130.707031 198.257812 130.695312 198.59375 130.773438 C 198.683594 130.792969 198.769531 130.773438 198.808594 130.703125 C 198.835938 130.652344 198.867188 130.640625 198.90625 130.648438 C 199.101562 130.683594 199.300781 130.652344 199.488281 130.742188 C 199.605469 130.800781 199.746094 130.820312 199.855469 130.902344 C 199.921875 130.949219 200.023438 130.898438 199.976562 130.808594 C 199.929688 130.714844 199.992188 130.628906 199.988281 130.539062 C 199.984375 130.433594 200.027344 130.332031 200.015625 130.226562 C 200.011719 130.175781 200.066406 130.207031 200.070312 130.195312 C 200.085938 130.15625 200.101562 130.109375 200.050781 130.078125 C 200.003906 130.042969 199.992188 129.992188 199.980469 129.9375 C 199.9375 129.746094 199.863281 129.558594 199.882812 129.355469 C 199.894531 129.246094 199.851562 129.140625 199.851562 129.027344 C 199.847656 128.902344 199.667969 129.023438 199.535156 128.695312 C 199.496094 128.605469 199.375 128.300781 199.414062 128.203125 C 199.453125 128.101562 199.457031 128.003906 199.414062 127.898438 C 199.351562 127.738281 199.425781 127.601562 199.496094 127.46875 C 199.511719 127.433594 199.539062 127.40625 199.558594 127.371094 C 199.652344 127.222656 199.644531 127.175781 199.480469 127.109375 C 199.328125 127.050781 199.21875 126.769531 199.316406 126.597656 C 199.355469 126.523438 199.359375 126.457031 199.300781 126.402344 C 199.265625 126.375 199.210938 126.363281 199.164062 126.355469 C 199.109375 126.347656 199.039062 126.367188 199.023438 126.296875 C 199.003906 126.222656 198.941406 126.144531 199.011719 126.0625 C 199.019531 126.054688 199.015625 126.039062 199.023438 126.03125 C 199.105469 125.925781 199.097656 125.820312 199.050781 125.699219 C 199.007812 125.585938 198.976562 125.464844 198.910156 125.355469 C 198.863281 125.28125 198.871094 125.1875 198.921875 125.164062 C 199.101562 125.082031 199.167969 125.328125 199.300781 125.46875 C 199.347656 125.402344 199.339844 125.34375 199.328125 125.261719 C 199.273438 124.960938 199.1875 124.664062 199.140625 124.363281 C 199.085938 123.992188 198.808594 123.03125 198.738281 122.605469 C 198.714844 122.449219 198.671875 122.285156 198.628906 122.128906 C 198.605469 122.046875 198.628906 121.960938 198.609375 121.882812 C 198.566406 121.710938 198.550781 121.742188 198.363281 121.71875 C 198.335938 121.671875 198.378906 121.652344 198.382812 121.621094 C 198.386719 121.59375 198.417969 121.578125 198.402344 121.53125 C 198.269531 121.503906 198.054688 121.550781 198.007812 121.5 C 197.859375 121.328125 197.707031 121.15625 197.714844 120.90625 C 197.722656 120.691406 197.667969 120.417969 197.816406 120.089844 C 197.851562 120.015625 197.839844 119.957031 197.804688 119.890625 C 197.707031 119.722656 197.746094 119.574219 197.953125 119.511719 C 198.089844 119.472656 198.085938 119.476562 198.050781 119.339844 C 197.738281 118.140625 197.734375 117.804688 197.558594 117.289062 C 197.464844 117.011719 196.382812 112.574219 196.316406 112.289062 C 196.242188 111.953125 196.140625 111.625 196.042969 111.292969 C 195.988281 111.101562 195.957031 110.898438 195.90625 110.707031 C 195.84375 110.46875 195.773438 110.230469 195.722656 109.992188 C 195.441406 108.578125 187.679688 78.464844 187.679688 78.460938 C 187.667969 78.425781 187.652344 78.371094 187.722656 78.359375 C 187.808594 78.34375 187.851562 78.363281 187.875 78.425781 C 187.875 78.429688 191.53125 92.777344 191.664062 93.101562 C 191.765625 93.351562 198.144531 118.589844 198.261719 119.269531 C 198.300781 119.488281 198.265625 119.511719 198.40625 119.511719 C 198.496094 119.511719 198.570312 119.53125 198.65625 119.574219 C 198.761719 119.628906 198.886719 119.664062 199.003906 119.703125 C 199.175781 119.761719 199.253906 119.898438 199.339844 120.03125 C 199.347656 120.042969 199.34375 120.0625 199.351562 120.078125 C 199.398438 120.207031 199.464844 120.265625 199.625 120.257812 C 199.945312 120.242188 200.253906 120.324219 200.550781 120.433594 C 200.65625 120.472656 200.78125 120.476562 200.832031 120.605469 C 200.835938 120.617188 200.859375 120.625 200.875 120.628906 C 201.089844 120.664062 201.175781 120.996094 201.382812 120.957031 C 201.457031 121.070312 201.609375 121.039062 201.699219 121.136719 C 201.769531 121.214844 201.898438 121.21875 202 121.253906 C 202.023438 121.261719 202.0625 121.253906 202.078125 121.269531 C 202.203125 121.382812 202.308594 121.324219 202.417969 121.238281 C 202.933594 120.832031 203.691406 120.6875 204.039062 120.722656 C 204.402344 120.757812 204.765625 120.800781 205.101562 120.960938 C 205.949219 121.371094 206.082031 121.820312 206.171875 121.851562 C 206.492188 121.957031 206.363281 122.265625 206.574219 122.632812 C 206.59375 122.664062 206.613281 122.691406 206.625 122.734375 C 206.667969 122.910156 206.761719 123.070312 206.890625 123.191406 C 207.027344 123.320312 207.117188 123.464844 207.195312 123.625 C 207.234375 123.703125 207.335938 123.683594 207.472656 124.035156 C 207.5625 124.261719 207.683594 124.476562 207.789062 124.695312 C 208.125 125.394531 208.050781 125.570312 208.089844 125.839844 C 208.128906 126.113281 208.09375 126.386719 208.128906 126.65625 C 208.210938 127.300781 208.058594 127.875 208.144531 128.011719 C 208.179688 128.070312 208.117188 128.113281 208.121094 128.171875 C 208.136719 128.597656 207.976562 129.296875 207.875 129.695312 C 207.8125 129.945312 207.777344 130.199219 207.722656 130.449219 C 207.617188 130.941406 207.472656 131.191406 207.324219 131.675781 C 207.214844 132.023438 207.078125 132.359375 206.890625 132.675781 C 206.882812 132.695312 206.875 132.722656 206.863281 132.734375 C 206.75 132.824219 206.738281 132.960938 206.726562 133.082031 C 206.660156 133.75 206.585938 133.6875 206.65625 134.042969 C 206.6875 134.199219 206.625 134.355469 206.6875 134.507812 C 206.691406 134.519531 206.6875 134.859375 206.6875 134.875 C 206.699219 135.050781 206.625 135.277344 206.570312 135.347656 C 206.410156 135.558594 206.589844 135.835938 206.253906 136.300781 C 206.011719 136.632812 205.917969 136.851562 205.589844 137.136719 C 205.59375 137.238281 205.753906 137.203125 205.769531 137.257812 C 205.785156 137.328125 205.835938 137.320312 205.886719 137.324219 C 206.199219 137.347656 206.023438 137.636719 206.121094 137.859375 C 206.152344 137.933594 206.144531 138.011719 206.109375 138.074219 C 206.066406 138.160156 206.121094 138.261719 206.050781 138.328125 C 205.96875 138.40625 206.003906 138.484375 206.035156 138.566406 C 206.132812 138.8125 206.160156 139.070312 206.078125 139.324219 C 205.953125 139.734375 205.671875 139.570312 205.769531 139.78125 C 205.851562 139.960938 205.972656 140.117188 206.050781 140.292969 C 206.121094 140.453125 206.253906 140.5625 206.324219 140.71875 C 206.339844 140.757812 206.824219 141.234375 206.835938 141.246094 C 206.9375 141.347656 207.007812 141.46875 207.074219 141.59375 C 207.121094 141.679688 207.050781 141.871094 206.964844 141.925781 C 206.914062 141.957031 206.851562 141.976562 206.832031 142.039062 C 206.855469 142.101562 206.917969 142.082031 206.960938 142.101562 C 207.007812 142.125 207.023438 142.15625 207.019531 142.207031 C 207.019531 142.246094 207.019531 142.277344 206.96875 142.296875 C 206.929688 142.308594 206.910156 142.328125 206.882812 142.273438 C 206.820312 142.164062 206.691406 142.15625 206.585938 142.121094 C 206.535156 142.105469 206.492188 142.132812 206.453125 142.167969 C 206.339844 142.261719 206.210938 142.230469 206.152344 142.09375 C 206.132812 142.039062 206.113281 142.027344 206.058594 142.046875 C 206.011719 142.058594 205.960938 142.050781 205.910156 142.050781 C 205.792969 142.058594 205.71875 142.136719 205.71875 142.25 C 205.71875 142.390625 205.726562 142.527344 205.746094 142.667969 C 205.785156 142.921875 205.699219 143.097656 205.816406 143.699219 C 205.832031 143.789062 205.785156 143.917969 205.882812 144.472656 C 205.914062 144.664062 205.835938 144.847656 205.941406 145.183594 C 205.960938 145.246094 205.949219 145.59375 205.953125 145.835938 C 205.957031 145.917969 205.953125 146.003906 205.914062 146.078125 C 205.859375 146.1875 205.886719 146.3125 205.835938 146.429688 C 205.746094 146.632812 205.652344 146.824219 205.488281 146.980469 C 205.3125 147.140625 205.121094 147.257812 204.882812 147.285156 C 204.585938 147.316406 204.769531 147.695312 204.464844 148.097656 C 204.460938 148.242188 204.351562 148.324219 204.265625 148.414062 C 204.207031 148.476562 204.121094 148.488281 204.027344 148.496094 C 203.679688 148.527344 203.582031 148.207031 203.574219 148.203125 C 203.550781 148.175781 203.535156 148.125 203.488281 148.140625 C 203.449219 148.15625 203.449219 148.203125 203.453125 148.242188 C 203.472656 148.582031 203.398438 148.917969 203.414062 149.257812 C 203.421875 149.371094 203.441406 149.492188 203.386719 149.601562 C 203.4375 149.804688 203.335938 150 203.347656 150.203125 C 203.371094 150.511719 203.308594 150.820312 203.3125 151.132812 C 203.3125 151.3125 203.320312 151.496094 203.28125 151.667969 C 203.246094 151.824219 203.277344 151.988281 203.222656 152.140625 C 203.199219 152.203125 203.257812 152.558594 203.152344 152.914062 C 203.136719 152.96875 203.160156 153.019531 203.160156 153.070312 C 203.160156 153.304688 203.125 153.535156 203.113281 153.769531 C 203.085938 154.582031 203.042969 154.5 203.050781 154.59375 C 203.074219 154.855469 203.015625 155.113281 203.011719 155.375 C 203.011719 155.582031 202.984375 155.792969 202.941406 155.996094 C 202.925781 156.085938 202.988281 156.179688 202.917969 156.261719 C 202.941406 156.457031 202.886719 156.648438 202.882812 156.839844 C 202.871094 157.066406 202.871094 157.292969 202.824219 157.515625 C 202.804688 157.601562 202.832031 157.699219 202.816406 157.785156 C 202.78125 157.953125 202.835938 158.128906 202.757812 158.292969 C 202.730469 158.347656 202.75 158.425781 202.75 158.492188 C 202.75 158.585938 202.75 158.679688 202.722656 158.773438 C 202.6875 158.890625 202.714844 159.015625 202.691406 159.136719 C 202.59375 159.648438 202.554688 160.589844 202.488281 161.046875 C 202.472656 161.167969 202.511719 160.878906 202.390625 162.023438 C 202.375 162.179688 202.332031 162.339844 202.351562 162.5 C 202.363281 162.597656 202.332031 162.691406 202.3125 162.777344 C 202.277344 162.933594 202.3125 163.101562 202.253906 163.253906 C 202.25 163.261719 202.25 163.273438 202.25 163.285156 C 202.273438 163.507812 202.203125 163.726562 202.214844 163.949219 C 202.226562 164.144531 202.195312 164.332031 202.15625 164.523438 C 202.136719 164.609375 202.148438 164.703125 202.152344 164.792969 C 202.152344 165.195312 202.070312 165.628906 202.082031 165.941406 C 202.089844 166.222656 202.015625 166.558594 202.019531 166.609375 C 202.039062 166.867188 202.007812 167.125 201.976562 167.378906 C 201.941406 167.671875 201.964844 167.96875 201.929688 168.261719 C 201.855469 168.847656 201.871094 169.5625 201.828125 169.917969 C 201.785156 170.300781 201.867188 170.542969 201.75 171.117188 C 201.75 171.128906 201.75 171.140625 201.75 171.152344 C 201.765625 171.5 201.726562 171.851562 201.707031 172.199219 C 201.679688 172.671875 201.695312 173.144531 201.683594 173.617188 C 201.621094 173.742188 201.664062 173.875 201.660156 174 C 201.644531 174.5 201.652344 176.761719 201.652344 176.785156 C 201.703125 177.460938 201.664062 179.609375 201.722656 180.1875 C 201.757812 180.515625 201.722656 180.847656 201.757812 181.175781 C 201.84375 181.921875 201.980469 186.949219 202.015625 187.835938 L 201.683594 187.835938 C 201.683594 186.992188 201.71875 187.378906 201.640625 186.382812 C 201.609375 185.949219 201.644531 185.515625 201.613281 185.082031 C 201.582031 184.699219 201.609375 184.3125 201.574219 183.933594 C 201.550781 183.644531 201.574219 182.859375 201.488281 182.542969 C 201.480469 182.507812 201.480469 182.464844 201.484375 182.425781 C 201.503906 181.980469 201.460938 181.535156 201.441406 181.09375 C 201.417969 180.65625 201.453125 180.222656 201.410156 179.792969 C 201.328125 178.898438 201.320312 172.394531 201.425781 171.609375 C 201.457031 171.34375 201.425781 171.078125 201.480469 170.816406 C 201.539062 170.515625 201.5 170.207031 201.519531 169.902344 C 201.542969 169.589844 201.535156 169.28125 201.554688 168.96875 C 201.875 163.984375 201.882812 164.039062 201.976562 163.757812 C 202.007812 163.664062 202.003906 163.558594 202.007812 163.464844 C 202.015625 163.292969 202.042969 163.121094 202.054688 162.949219 C 202.074219 162.769531 202.0625 162.585938 202.113281 162.410156 C 202.128906 162.359375 202.117188 162.300781 202.117188 162.242188 C 202.113281 161.945312 202.195312 161.832031 202.207031 161.390625 C 202.230469 160.664062 202.355469 160.113281 202.351562 159.875 C 202.339844 159.4375 202.429688 159.296875 202.417969 159.152344 C 202.398438 158.941406 202.453125 158.738281 202.464844 158.53125 C 202.476562 158.332031 202.507812 158.136719 202.523438 157.9375 C 202.535156 157.742188 202.535156 157.542969 202.578125 157.347656 C 202.59375 157.277344 202.585938 157.203125 202.589844 157.132812 C 202.597656 156.875 202.640625 156.625 202.660156 156.367188 C 202.71875 155.492188 202.753906 155.671875 202.75 155.550781 C 202.742188 155.304688 202.785156 155.058594 202.792969 154.8125 C 202.804688 154.546875 202.832031 154.273438 202.859375 154.007812 C 202.878906 153.808594 202.851562 153.605469 202.890625 153.410156 C 202.9375 153.175781 202.875 152.933594 202.949219 152.703125 C 202.953125 152.695312 202.949219 152.691406 202.949219 152.6875 C 202.925781 152.433594 202.976562 152.1875 202.988281 151.9375 C 203.03125 150.945312 203.070312 151.332031 203.050781 150.980469 C 203.03125 150.628906 203.140625 148.652344 203.15625 148.40625 C 203.199219 147.742188 203.148438 147.074219 203.191406 146.414062 C 203.25 145.429688 203.179688 143.96875 203.234375 143.859375 C 203.296875 143.738281 203.199219 143.6875 203.21875 143.617188 C 203.261719 143.464844 203.175781 143.304688 203.25 143.152344 C 203.257812 143.132812 203.257812 143.105469 203.25 143.085938 C 203.210938 142.9375 203.289062 142.78125 203.222656 142.636719 C 203.300781 142.527344 203.207031 142.410156 203.238281 142.289062 C 203.261719 142.214844 203.21875 142.113281 203.21875 142.023438 C 203.21875 141.609375 203.207031 141.195312 203.222656 140.78125 C 203.230469 140.480469 203.171875 140.183594 203.179688 139.882812 C 203.183594 139.796875 203.140625 139.710938 203.148438 139.621094 C 203.152344 139.574219 203.117188 139.574219 203.082031 139.570312 C 202.980469 139.558594 202.992188 139.675781 202.757812 139.601562 C 202.5 139.519531 202.347656 139.320312 202.183594 139.128906 C 202.074219 139.007812 202.078125 139.195312 201.601562 139.425781 C 201.558594 139.445312 201.503906 139.445312 201.449219 139.414062 C 201.5 139.316406 201.503906 139.238281 201.382812 139.175781 C 201.285156 139.125 201.296875 139.074219 201.402344 139.035156 C 201.519531 138.988281 201.605469 138.890625 201.707031 138.820312 C 201.769531 138.773438 201.738281 138.621094 201.652344 138.566406 C 201.570312 138.515625 201.476562 138.488281 201.441406 138.378906 C 201.433594 138.355469 201.394531 138.363281 201.367188 138.363281 C 201.074219 138.359375 200.84375 138.402344 200.660156 138.179688 C 200.582031 138.089844 200.398438 138.109375 200.34375 138.214844 C 200.3125 138.269531 200.296875 138.332031 200.28125 138.398438 C 200.207031 138.777344 200.1875 138.6875 200.082031 139.226562 C 200.0625 139.320312 200.042969 139.351562 199.957031 139.332031 C 199.847656 139.308594 199.738281 139.3125 199.628906 139.296875 C 199.558594 139.285156 199.496094 139.226562 199.417969 139.21875 C 199.410156 139.21875 199.398438 139.207031 199.390625 139.203125 C 199.34375 139.1875 199.28125 139.226562 199.253906 139.171875 C 199.222656 139.101562 199.363281 139 199.296875 138.945312 C 199.273438 138.925781 199.246094 138.929688 199.21875 138.945312 C 199.101562 139.027344 199.132812 138.847656 198.921875 138.960938 C 198.832031 139.011719 198.730469 139.039062 198.640625 139.09375 C 198.511719 139.175781 198 139.320312 197.816406 139.414062 C 197.75 139.449219 197.671875 139.460938 197.601562 139.488281 C 197.484375 139.539062 197.363281 139.597656 197.238281 139.617188 C 197.097656 139.636719 196.972656 139.710938 196.824219 139.707031 C 196.734375 139.707031 196.640625 139.734375 196.550781 139.742188 C 196.390625 139.753906 196.269531 139.667969 196.132812 139.609375 C 195.703125 139.429688 195.507812 139.289062 195.273438 139.304688 C 195.203125 139.308594 195.144531 139.234375 195.070312 139.285156 C 195.050781 139.300781 195.023438 139.28125 195.007812 139.328125 C 194.808594 139.871094 194.535156 139.839844 194.695312 140.070312 C 194.789062 140.207031 194.867188 140.351562 194.894531 140.511719 C 194.921875 140.707031 194.960938 140.910156 194.867188 141.105469 C 194.820312 141.203125 194.851562 141.328125 194.765625 141.414062 C 194.753906 141.421875 194.757812 141.429688 194.757812 141.441406 C 194.8125 141.65625 194.753906 141.78125 194.644531 142.339844 C 194.601562 142.570312 194.574219 142.488281 194.636719 142.707031 C 194.660156 142.78125 194.648438 142.855469 194.601562 142.910156 C 194.460938 143.078125 194.683594 143.371094 194.238281 143.511719 C 194.097656 143.554688 193.980469 143.667969 193.828125 143.671875 C 193.761719 143.765625 193.652344 143.730469 193.566406 143.753906 C 193.46875 143.78125 193.355469 143.78125 193.246094 143.761719 C 193.214844 143.757812 193.175781 143.757812 193.160156 143.722656 C 193.121094 143.640625 193.070312 143.652344 193 143.683594 C 192.847656 143.75 192.835938 143.746094 192.8125 143.566406 C 192.804688 143.496094 192.78125 143.488281 192.71875 143.503906 C 192.628906 143.53125 192.554688 143.476562 192.542969 143.386719 C 192.542969 143.359375 192.550781 143.328125 192.542969 143.300781 C 192.484375 143.121094 192.429688 143.277344 192.304688 143.207031 C 192.246094 143.175781 192.238281 143.113281 192.289062 143.070312 C 192.351562 143.019531 192.351562 143.019531 192.308594 142.953125 L 192.3125 142.957031 C 192.296875 142.929688 192.285156 142.890625 192.242188 142.910156 C 192.1875 142.933594 192.132812 142.914062 192.078125 142.925781 C 192.015625 142.933594 192.007812 142.882812 191.988281 142.847656 C 191.960938 142.800781 192.007812 142.78125 192.03125 142.753906 C 192.042969 142.742188 192.058594 142.726562 192.070312 142.726562 C 192.117188 142.71875 192.164062 142.71875 192.125 142.648438 C 192.089844 142.59375 192.0625 142.542969 191.988281 142.585938 C 191.980469 142.589844 191.96875 142.589844 191.957031 142.59375 C 191.921875 142.617188 191.890625 142.6875 191.847656 142.601562 C 191.796875 142.503906 191.796875 142.484375 191.882812 142.433594 C 191.890625 142.429688 191.902344 142.425781 191.910156 142.421875 C 191.996094 142.367188 191.996094 142.367188 191.910156 142.285156 L 191.914062 142.289062 C 191.808594 142.144531 191.691406 142.007812 191.5625 141.886719 C 191.515625 141.84375 191.484375 141.78125 191.40625 141.78125 C 191.347656 141.777344 191.355469 141.699219 191.308594 141.679688 Z M 198.796875 121.710938 C 198.765625 121.847656 198.824219 121.945312 198.847656 122.050781 C 199.429688 124.5625 199.035156 122.921875 199.511719 125.035156 C 199.558594 125.246094 199.554688 125.453125 199.542969 125.664062 C 199.4375 125.777344 199.492188 125.894531 199.554688 125.992188 C 199.601562 126.066406 199.609375 126.167969 199.695312 126.210938 C 199.800781 126.269531 199.878906 126.371094 199.980469 126.429688 C 200.214844 126.570312 200.273438 126.898438 200.300781 126.960938 C 200.402344 127.183594 200.417969 127.285156 200.816406 129.441406 C 200.832031 129.542969 200.871094 129.492188 201.324219 129.507812 C 201.402344 129.511719 201.460938 129.488281 201.511719 129.429688 C 201.640625 129.285156 201.796875 129.199219 202 129.238281 C 202.023438 129.242188 202.042969 129.238281 202.066406 129.238281 C 202.207031 129.246094 202.226562 129.050781 202.242188 129.023438 C 202.488281 128.535156 202.738281 127.636719 202.757812 127.476562 C 202.769531 127.351562 202.792969 127.226562 202.832031 127.109375 C 202.90625 126.878906 202.941406 126.640625 203.019531 126.414062 C 203.058594 126.296875 203.054688 126.167969 203.140625 126.070312 C 203.117188 126.054688 203.09375 126.046875 203.082031 126.03125 C 202.960938 125.875 202.75 125.808594 202.679688 125.605469 C 202.675781 125.59375 202.648438 125.589844 202.640625 125.578125 C 202.527344 125.449219 202.367188 125.375 202.246094 125.253906 C 202.097656 125.109375 201.929688 124.972656 201.832031 124.777344 C 201.808594 124.730469 201.464844 124.625 201.269531 124.175781 C 201.195312 124.003906 201.136719 123.824219 201.21875 123.636719 C 201.375 123.285156 201.296875 123.078125 201.328125 123.042969 C 201.371094 122.992188 201.332031 122.957031 201.296875 122.933594 C 201.246094 122.898438 201.1875 122.855469 201.128906 122.839844 C 200.96875 122.792969 200.839844 122.6875 200.691406 122.621094 C 200.457031 122.511719 200.238281 122.355469 199.992188 122.277344 C 199.734375 122.195312 199.484375 122.078125 199.210938 122.054688 C 199.160156 122.050781 199.117188 122.003906 199.070312 121.972656 C 198.972656 121.902344 198.921875 121.785156 198.796875 121.710938 Z M 203.53125 144.085938 C 203.671875 143.871094 203.664062 143.792969 203.914062 143.375 C 204.21875 142.863281 204.152344 143.058594 204.269531 142.457031 C 204.304688 142.25 204.363281 142.050781 204.378906 141.84375 C 204.402344 141.597656 204.480469 141.363281 204.496094 141.113281 C 204.503906 140.914062 204.542969 140.71875 204.550781 140.523438 C 204.554688 140.425781 204.535156 140.324219 204.558594 140.238281 C 204.589844 140.136719 204.539062 140.046875 204.546875 139.949219 C 204.566406 139.746094 204.5625 139.546875 204.425781 139.363281 C 204.382812 139.304688 204.375 139.285156 204.300781 139.296875 C 204.1875 139.316406 204.050781 139.210938 204.074219 139.105469 C 204.097656 138.996094 204.042969 139.011719 203.890625 139.019531 C 203.871094 139.070312 203.90625 139.136719 203.847656 139.1875 C 203.738281 139.285156 203.625 139.371094 203.464844 139.371094 C 203.351562 139.367188 203.316406 139.417969 203.363281 139.523438 C 203.578125 140.007812 203.4375 141.058594 203.496094 143.292969 C 203.503906 143.503906 203.484375 143.71875 203.484375 143.929688 C 203.484375 143.984375 203.464844 144.042969 203.53125 144.085938 Z M 205.199219 141.523438 C 205.011719 142.011719 205.035156 141.910156 205.019531 141.972656 C 204.878906 142.488281 204.925781 143.351562 204.917969 145.136719 C 204.917969 145.207031 204.976562 145.265625 204.949219 145.328125 C 204.875 145.503906 204.996094 145.550781 204.949219 145.683594 C 204.867188 145.921875 204.988281 145.988281 204.851562 146.769531 C 204.839844 146.816406 204.816406 146.859375 204.816406 146.914062 C 204.820312 147.015625 204.839844 147.035156 204.9375 147.007812 C 205.136719 146.941406 205.289062 146.816406 205.417969 146.652344 C 205.671875 146.324219 205.679688 145.929688 205.71875 145.542969 C 205.71875 145.53125 205.722656 145.519531 205.714844 145.507812 C 205.664062 145.414062 205.683594 145.3125 205.6875 145.214844 C 205.699219 145.011719 205.582031 144.453125 205.585938 144.179688 C 205.585938 144.144531 205.589844 144.109375 205.582031 144.078125 C 205.488281 143.539062 205.53125 143.3125 205.515625 143.269531 C 205.457031 143.125 205.484375 142.972656 205.488281 142.824219 C 205.496094 142.671875 205.453125 142.523438 205.484375 142.371094 C 205.53125 142.140625 205.273438 142.371094 205.285156 142.144531 C 205.292969 141.933594 205.09375 141.78125 205.242188 141.636719 C 205.277344 141.597656 205.25 141.550781 205.199219 141.523438 Z M 204.65625 142.671875 C 204.363281 143.152344 204.460938 142.984375 204.414062 143.085938 C 204.328125 143.289062 204.292969 143.511719 204.222656 143.722656 C 204.203125 143.785156 204.164062 143.839844 204.152344 143.90625 C 204.128906 144.085938 203.859375 144.785156 203.742188 145.175781 C 203.707031 145.292969 203.691406 145.417969 203.632812 145.53125 C 203.597656 145.609375 203.554688 145.722656 203.59375 145.820312 C 203.742188 146.207031 203.871094 146.777344 204.410156 146.996094 C 204.5 147.03125 204.527344 147.015625 204.550781 146.925781 C 204.605469 146.699219 204.613281 146.46875 204.648438 146.242188 C 204.691406 146 204.628906 146.070312 204.671875 145.269531 C 204.6875 144.964844 204.632812 145.640625 204.652344 143.082031 C 204.65625 142.953125 204.695312 142.824219 204.65625 142.671875 Z M 196.0625 134.582031 C 196.03125 134.726562 196.03125 134.726562 195.898438 134.738281 C 195.804688 134.75 195.800781 134.765625 195.808594 134.875 C 195.8125 134.9375 195.863281 134.992188 195.84375 135.050781 C 195.796875 135.179688 195.832031 135.324219 195.761719 135.449219 C 195.738281 135.488281 195.726562 135.53125 195.714844 135.574219 C 195.707031 135.609375 195.71875 135.636719 195.746094 135.660156 C 195.773438 135.683594 195.796875 135.667969 195.820312 135.65625 C 195.980469 135.59375 196.140625 135.523438 196.304688 135.46875 C 196.664062 135.347656 196.820312 135.234375 197.09375 135.136719 C 197.230469 135.089844 197.363281 135.027344 197.492188 134.953125 C 197.527344 134.929688 197.558594 134.910156 197.542969 134.867188 C 197.53125 134.828125 197.496094 134.804688 197.453125 134.808594 C 197.34375 134.816406 197.242188 134.761719 197.128906 134.769531 C 196.785156 134.789062 196.941406 134.660156 196.667969 134.675781 C 196.460938 134.683594 196.273438 134.59375 196.0625 134.582031 Z M 203.539062 146.386719 C 203.476562 146.417969 203.484375 146.46875 203.484375 146.519531 C 203.484375 147.5 203.480469 147.445312 203.496094 147.46875 C 203.585938 147.640625 203.574219 147.851562 203.710938 148.003906 C 203.71875 148.136719 203.839844 148.167969 203.917969 148.238281 C 203.9375 148.253906 203.957031 148.261719 203.980469 148.246094 C 204.035156 148.203125 204.097656 148.1875 204.144531 148.121094 C 204.269531 147.925781 204.367188 147.726562 204.421875 147.5 C 204.476562 147.28125 204.484375 147.289062 204.296875 147.21875 C 204.066406 147.132812 203.898438 146.964844 203.753906 146.777344 C 203.714844 146.722656 203.65625 146.667969 203.652344 146.59375 C 203.648438 146.5 203.578125 146.453125 203.539062 146.386719 Z M 205.867188 141.480469 C 205.972656 141.457031 206.054688 141.523438 206.148438 141.542969 C 206.246094 141.5625 206.324219 141.648438 206.433594 141.621094 C 206.492188 141.6875 206.585938 141.683594 206.648438 141.730469 C 206.746094 141.804688 206.746094 141.808594 206.8125 141.769531 C 206.894531 141.726562 206.90625 141.699219 206.871094 141.613281 C 206.738281 141.300781 206.082031 140.9375 205.824219 140.246094 C 205.796875 140.171875 205.757812 140.160156 205.699219 140.136719 C 205.648438 140.472656 205.742188 140.890625 205.71875 141.277344 C 205.71875 141.332031 205.75 141.378906 205.804688 141.375 C 205.882812 141.367188 205.886719 141.371094 205.867188 141.480469 Z M 199.746094 127.492188 C 199.621094 127.582031 199.578125 127.699219 199.632812 127.820312 C 199.683594 127.933594 199.660156 128.089844 199.796875 128.167969 C 199.808594 128.171875 199.816406 128.195312 199.8125 128.210938 C 199.800781 128.304688 199.835938 128.394531 199.847656 128.488281 C 199.871094 128.632812 199.730469 128.6875 199.8125 128.746094 C 199.855469 128.777344 199.867188 128.730469 199.886719 128.710938 C 200.488281 128.222656 200.289062 128.410156 200.113281 127.394531 C 200.101562 127.332031 200.066406 127.328125 200.023438 127.371094 C 199.917969 127.476562 200.121094 127.492188 199.9375 127.617188 C 199.863281 127.667969 199.808594 127.566406 199.746094 127.492188 Z M 204.863281 138.980469 C 204.808594 139.007812 204.777344 139.078125 204.710938 139.101562 C 204.679688 139.113281 204.675781 139.15625 204.691406 139.171875 C 204.777344 139.285156 204.738281 139.4375 204.8125 139.5625 C 204.878906 139.671875 204.90625 139.804688 204.949219 139.925781 C 204.957031 139.953125 204.941406 140 205.007812 140 C 205.128906 139.636719 205.109375 139.292969 204.863281 138.980469 Z M 204.601562 142.226562 C 204.6875 142.09375 204.765625 141.96875 204.777344 141.832031 C 204.792969 141.691406 204.820312 141.546875 204.816406 141.40625 C 204.8125 141.175781 204.871094 140.957031 204.898438 140.734375 C 204.910156 140.644531 204.894531 140.574219 204.878906 140.496094 C 204.875 140.480469 204.847656 140.453125 204.835938 140.453125 C 204.730469 140.472656 204.84375 140.621094 204.71875 141.285156 C 204.679688 141.472656 204.667969 141.664062 204.628906 141.851562 C 204.609375 141.960938 204.558594 142.082031 204.601562 142.226562 Z M 200.148438 129.101562 C 200.148438 129.277344 200.144531 129.4375 200.148438 129.597656 C 200.152344 129.683594 200.238281 129.730469 200.3125 129.691406 C 200.34375 129.675781 200.367188 129.648438 200.410156 129.640625 C 200.492188 129.625 200.507812 129.589844 200.457031 129.535156 C 200.238281 129.292969 200.347656 129.148438 200.148438 129.101562 Z M 205.71875 139.398438 C 205.769531 139.414062 205.796875 139.382812 205.820312 139.332031 C 205.921875 139.113281 205.90625 138.898438 205.824219 138.679688 C 205.8125 138.652344 205.808594 138.621094 205.769531 138.640625 C 205.742188 138.652344 205.714844 138.671875 205.726562 138.714844 C 205.78125 138.941406 205.691406 139.164062 205.71875 139.398438 Z M 185.457031 141.125 C 185.480469 141.1875 185.539062 141.210938 185.585938 141.25 C 185.644531 141.296875 185.6875 141.257812 185.722656 141.210938 C 185.757812 141.164062 185.738281 141.105469 185.679688 141.074219 C 185.59375 141.03125 185.527344 141.078125 185.457031 141.125 Z M 205.320312 138.695312 C 205.351562 138.675781 205.390625 138.652344 205.425781 138.628906 C 205.460938 138.605469 205.460938 138.570312 205.441406 138.542969 C 205.351562 138.40625 205.199219 138.476562 205.261719 138.613281 C 205.277344 138.640625 205.273438 138.683594 205.320312 138.695312 Z M 201.417969 138.175781 C 201.28125 138.105469 201.214844 138.109375 201.09375 138.191406 C 201.203125 138.253906 201.300781 138.238281 201.417969 138.175781 Z M 205.285156 138.132812 C 205.277344 138.089844 205.25 138.054688 205.199219 138.0625 C 205.125 138.074219 205.152344 138.152344 205.125 138.195312 C 205.113281 138.21875 205.148438 138.253906 205.183594 138.257812 C 205.222656 138.257812 205.285156 138.183594 205.285156 138.132812 Z M 200.035156 127.058594 C 200.070312 127.054688 200.082031 127.035156 200.082031 127.003906 C 200.070312 126.886719 199.960938 126.957031 199.960938 127.007812 C 199.964844 127.042969 200 127.0625 200.035156 127.058594 Z M 200.4375 128.773438 C 200.453125 128.703125 200.457031 128.660156 200.441406 128.621094 C 200.433594 128.597656 200.414062 128.566406 200.382812 128.589844 C 200.367188 128.597656 200.351562 128.613281 200.371094 128.640625 C 200.394531 128.675781 200.410156 128.714844 200.4375 128.773438 Z M 205.125 138.800781 C 205.050781 138.804688 205.105469 138.90625 205.160156 138.890625 C 205.183594 138.886719 205.183594 138.859375 205.183594 138.839844 C 205.179688 138.800781 205.152344 138.800781 205.125 138.800781 Z M 192.597656 135.601562 C 192.609375 135.5625 192.609375 135.574219 192.597656 135.558594 C 192.578125 135.578125 192.574219 135.570312 192.597656 135.601562 Z M 192.597656 135.601562 " fill-opacity="1" fill-rule="nonzero"/></g><path fill="#000000" d="M 199.777344 84.480469 C 199.761719 84.492188 199.765625 84.492188 199.753906 84.476562 L 199.765625 84.46875 Z M 199.777344 84.480469 " fill-opacity="1" fill-rule="nonzero"/><path fill="#000000" d="M 203.703125 84.871094 L 203.707031 84.882812 L 203.695312 84.882812 Z M 203.703125 84.871094 " fill-opacity="1" fill-rule="nonzero"/><g clip-path="url(#dfdc9972a5)"><path fill="#000000" d="M 53.289062 165.691406 L 109.589844 130.503906 L 124.890625 134.199219 L 158.269531 97.285156 L 197.023438 78.339844 L 239.371094 109.097656 L 273.058594 119.921875 L 329.230469 187.835938 L 287.042969 162.492188 L 284.589844 174.304688 L 249.757812 139.855469 L 235.101562 155.863281 L 235.101562 132.328125 L 194.570312 105.652344 L 181.695312 97.039062 L 162.929688 137.613281 L 145.890625 133.089844 L 129.25 161.753906 L 98.023438 156.832031 L 36.851562 186.125 L 53.289062 165.691406 " fill-opacity="1" fill-rule="nonzero"/></g><g fill="#000000" fill-opacity="1"><g transform="translate(79.422279, 239.114641)"><g><path d="M 0.859375 -20.234375 L 0.859375 -16.214844 L 7.492188 -16.214844 L 7.492188 0 L 12.082031 0 L 12.082031 -16.214844 L 18.683594 -16.214844 L 18.683594 -20.234375 Z M 0.859375 -20.234375 "/></g></g></g><g fill="#000000" fill-opacity="1"><g transform="translate(100.798746, 239.114641)"><g><path d="M 16.15625 0 L 16.15625 -4.019531 L 6.3125 -4.019531 L 6.3125 -8.121094 L 14.722656 -8.121094 L 14.722656 -12.140625 L 6.3125 -12.140625 L 6.3125 -16.214844 L 16.15625 -16.214844 L 16.15625 -20.234375 L 1.722656 -20.234375 L 1.722656 0 Z M 16.15625 0 "/></g></g></g><g fill="#000000" fill-opacity="1"><g transform="translate(119.937197, 239.114641)"><g><path d="M 19.542969 -5.566406 C 19.542969 -9.785156 13.832031 -11.394531 10.101562 -12.65625 C 6.859375 -13.746094 6.371094 -14.089844 6.371094 -15.011719 C 6.371094 -16.042969 7.664062 -16.503906 9.730469 -16.503906 C 12.226562 -16.503906 14.121094 -15.8125 14.121094 -13.34375 L 18.710938 -13.34375 C 18.710938 -17.363281 15.929688 -20.519531 9.730469 -20.519531 C 4.503906 -20.519531 1.78125 -18.625 1.78125 -15.183594 C 1.78125 -11.222656 5.253906 -10.074219 9.527344 -8.636719 C 12.484375 -7.632812 14.953125 -6.972656 14.953125 -5.511719 C 14.953125 -4.417969 13.976562 -3.730469 11.019531 -3.730469 C 7.003906 -3.730469 5.453125 -4.707031 5.453125 -7.804688 L 0.859375 -7.804688 C 0.859375 -2.699219 3.585938 0.285156 10.878906 0.285156 C 17.105469 0.285156 19.542969 -2.09375 19.542969 -5.566406 Z M 19.542969 -5.566406 "/></g></g></g><g fill="#000000" fill-opacity="1"><g transform="translate(142.174439, 239.114641)"><g><path d="M 0.859375 -20.234375 L 0.859375 -16.214844 L 7.492188 -16.214844 L 7.492188 0 L 12.082031 0 L 12.082031 -16.214844 L 18.683594 -16.214844 L 18.683594 -20.234375 Z M 0.859375 -20.234375 "/></g></g></g><g fill="#000000" fill-opacity="1"><g transform="translate(163.550907, 239.114641)"><g><path d="M 1.433594 -10.132812 C 1.433594 -4.21875 5.394531 0.285156 11.824219 0.285156 C 17.476562 0.285156 21.207031 -2.8125 21.8125 -7.835938 L 17.21875 -7.835938 C 16.761719 -5.164062 14.636719 -3.730469 11.882812 -3.730469 C 8.351562 -3.730469 6.027344 -5.941406 6.027344 -10.132812 C 6.027344 -14.292969 8.351562 -16.503906 11.882812 -16.503906 C 14.636719 -16.503906 16.761719 -15.097656 17.21875 -12.425781 L 21.8125 -12.425781 C 21.207031 -17.421875 17.476562 -20.519531 11.824219 -20.519531 C 5.394531 -20.519531 1.433594 -16.015625 1.433594 -10.132812 Z M 1.433594 -10.132812 "/></g></g></g><g fill="#000000" fill-opacity="1"><g transform="translate(188.628704, 239.114641)"><g><path d="M 21.726562 0 L 14.867188 -20.234375 L 7.40625 -20.234375 L 0.574219 0 L 5.222656 0 L 6.886719 -5.050781 L 15.410156 -5.050781 L 17.074219 0 Z M 10.5625 -16.214844 L 11.710938 -16.214844 L 14.0625 -9.070312 L 8.207031 -9.070312 Z M 10.5625 -16.214844 "/></g></g></g><g fill="#000000" fill-opacity="1"><g transform="translate(212.759651, 239.114641)"><g><path d="M 16.15625 0 L 16.15625 -4.019531 L 6.3125 -3.730469 L 6.3125 -20.234375 L 1.722656 -20.234375 L 1.722656 -2.125 C 1.722656 -0.546875 2.613281 0.316406 4.191406 0.285156 Z M 16.15625 0 "/></g></g></g><g fill="#000000" fill-opacity="1"><g transform="translate(231.324254, 239.114641)"><g><path d="M 21.726562 0 L 14.867188 -20.234375 L 7.40625 -20.234375 L 0.574219 0 L 5.222656 0 L 6.886719 -5.050781 L 15.410156 -5.050781 L 17.074219 0 Z M 10.5625 -16.214844 L 11.710938 -16.214844 L 14.0625 -9.070312 L 8.207031 -9.070312 Z M 10.5625 -16.214844 "/></g></g></g><g fill="#000000" fill-opacity="1"><g transform="translate(255.4552, 239.114641)"><g><path d="M 8.984375 -20.234375 L 1.722656 -20.234375 L 1.722656 0 L 6.3125 0 L 6.3125 -6.027344 L 8.984375 -6.027344 C 14.089844 -6.027344 17.996094 -7.003906 17.996094 -13.144531 C 17.996094 -19.257812 14.089844 -20.234375 8.984375 -20.234375 Z M 6.3125 -10.042969 L 6.3125 -16.214844 L 9.269531 -16.214844 C 11.996094 -16.214844 13.402344 -15.929688 13.402344 -13.144531 C 13.402344 -10.332031 11.996094 -10.042969 9.269531 -10.042969 Z M 6.3125 -10.042969 "/></g></g></g><g fill="#000000" fill-opacity="1"><g transform="translate(276.429967, 239.114641)"><g><path d="M 8.984375 -20.234375 L 1.722656 -20.234375 L 1.722656 0 L 6.3125 0 L 6.3125 -6.027344 L 8.984375 -6.027344 C 14.089844 -6.027344 17.996094 -7.003906 17.996094 -13.144531 C 17.996094 -19.257812 14.089844 -20.234375 8.984375 -20.234375 Z M 6.3125 -10.042969 L 6.3125 -16.214844 L 9.269531 -16.214844 C 11.996094 -16.214844 13.402344 -15.929688 13.402344 -13.144531 C 13.402344 -10.332031 11.996094 -10.042969 9.269531 -10.042969 Z M 6.3125 -10.042969 "/></g></g></g></svg>